PathFileType	4	(X/Y/Z)	/Users/niels/Desktop/University/Third Semester/Perception and Action/Exam/Gymnastics Motion Tracking/Code for Gym Tracking/Analyzed Data/Webcam_Backflip/id3_1_trajectory_Sports2D/id3_1_trajectory_Sports2D_px_person00.trc
DataRate	CameraRate	NumFrames	NumMarkers	Units	OrigDataRate	OrigDataStartFrame	OrigNumFrames
29.8125	29.8125	9	22	m	29.8125	0	160
Frame#	Time	Hip			RHip			RKnee			RAnkle			RBigToe			RSmallToe			RHeel			LHip			LKnee			LAnkle			LBigToe			LSmallToe			LHeel			Neck			Head			Nose			RShoulder			RElbow			RWrist			LShoulder			LElbow			LWrist		
		X1	Y1	Z1	X2	Y2	Z2	X3	Y3	Z3	X4	Y4	Z4	X5	Y5	Z5	X6	Y6	Z6	X7	Y7	Z7	X8	Y8	Z8	X9	Y9	Z9	X10	Y10	Z10	X11	Y11	Z11	X12	Y12	Z12	X13	Y13	Z13	X14	Y14	Z14	X15	Y15	Z15	X16	Y16	Z16	X17	Y17	Z17	X18	Y18	Z18	X19	Y19	Z19	X20	Y20	Z20	X21	Y21	Z21	X22	Y22	Z22
0	0.0	0.9990944775730952	-0.5682581821648691	0.0	1.0006711734711866	-0.5666840426359767	0.0	0.995944533900683	-0.6725517317453243	0.0	0.9801456523059489	-0.7879037639657243	0.0	1.011759787947249	-0.8116062005103815	0.0	1.0006969782969346	-0.8147634103887402	0.0	0.970664565650245	-0.8068655300029263	0.0	0.9975155576699183	-0.5666822158065438	0.0	0.9991054555487325	-0.6709726864536089	0.0	0.9801491601242145	-0.7847348807339752	0.0	1.0149271482097786	-0.8052818891888472	0.0	1.010191940732068	-0.8052752529193205	0.0	0.9706667615001507	-0.8005372921873664	0.0	0.9896371621527973	-0.40076412257493194	0.0	0.9880549332787769	-0.3264995828573033	0.0	1.0165029212421461	-0.3644216474352793	0.0	0.984889541367913	-0.427617338600195	0.0	0.988065791452957	-0.508200585053574	0.0	1.027572177021138	-0.5745662322802509	0.0	0.9864925519286315	-0.4244607040858869	0.0	0.9912594194045303	-0.4987167675848385	0.0	1.0260297293216196	-0.561910576147578	0.0
1	0.03354297693920335	0.9980996310439135	-0.5696567584604078	0.0	0.9997952370830567	-0.5678910819286801	0.0	0.9958449177988417	-0.6743201073347751	0.0	0.9796448445120346	-0.7901974476086807	0.0	1.012470698667519	-0.8145440794762516	0.0	1.0010773422718113	-0.8173572728918623	0.0	0.970408090360279	-0.8088594314862472	0.0	0.996732733832684	-0.5678816730498957	0.0	0.9986958093162874	-0.6732199654395769	0.0	0.9806034067811642	-0.7866651188204546	0.0	1.014932232962447	-0.8074042138082709	0.0	1.009783756239138	-0.8074848243752496	0.0	0.9704276827239025	-0.8029825587801107	0.0	0.9900314516807168	-0.40242256685001637	0.0	0.9892449139198871	-0.32859540428379996	0.0	1.0172157748236745	-0.36577448385944916	0.0	0.9858032813345552	-0.4288056445529885	0.0	0.9900387856604025	-0.5104229368399593	0.0	1.0302831318095749	-0.5755245119297977	0.0	0.9872602571357426	-0.425984954330648	0.0	0.9928928371817209	-0.501734221459154	0.0	1.0263305569737804	-0.5644346366858376	0.0
2	0.0670859538784067	0.9970680948774525	-0.570628264096828	0.0	0.9989411188164372	-0.5687502244939465	0.0	0.9958555373539525	-0.6758025960882945	0.0	0.979260632856149	-0.7922783296960496	0.0	1.013310862822227	-0.8169158826614101	0.0	1.0018348282551186	-0.8195477293029696	0.0	0.9700643396940317	-0.8106268898248251	0.0	0.9958129847717612	-0.5687146390969354	0.0	0.9982994543489525	-0.6749971492574495	0.0	0.9808139817851663	-0.7883464396203842	0.0	1.0150551576595606	-0.8091779511469892	0.0	1.0094696159156842	-0.8093550818822077	0.0	0.9700454037447822	-0.805011878287364	0.0	0.9905249432874157	-0.403975466955859	0.0	0.9906189423161362	-0.3303300424646203	0.0	1.0180366173489785	-0.36702810886970466	0.0	0.9866967198301928	-0.4297844088100365	0.0	0.9924420402957391	-0.5121104246654296	0.0	1.0339600557265627	-0.5758786079914582	0.0	0.987736282616465	-0.4273596230413505	0.0	0.994987073336453	-0.5041515846901052	0.0	1.0276342779642569	-0.5660370770557441	0.0
3	0.10062893081761004	0.9959132785517131	-0.5708605742645204	0.0	0.9980575057037075	-0.5689734938184159	0.0	0.9959749175392161	-0.6767443985740004	0.0	0.9790685661518463	-0.793926544550618	0.0	1.014283970575517	-0.818341988251269	0.0	1.0030796971797524	-0.8210094450201063	0.0	0.9696319769831264	-0.8119349685786899	0.0	0.9947116105179229	-0.5688795578493684	0.0	0.997881088854374	-0.675970356982253	0.0	0.9807040091822194	-0.7895236902587778	0.0	1.015247415848715	-0.8103730900641417	0.0	1.0092318875486483	-0.8106536473851373	0.0	0.9694832084065822	-0.8063164002065182	0.0	0.9911445764991086	-0.40527102392265707	0.0	0.9923341940102824	-0.3314335322913088	0.0	1.0190555401151213	-0.36811727857172943	0.0	0.987555737181777	-0.4303829144377389	0.0	0.9957073991596904	-0.5128355087584541	0.0	1.039373140783119	-0.575085365319436	0.0	0.98776125013359	-0.4284174736781251	0.0	0.9979385148953435	-0.5055305761731537	0.0	1.0307701081717835	-0.5660553116157094	0.0
4	0.1341719077568134	0.9944904286530136	-0.5702684108872363	0.0	0.996976017238454	-0.5684370534686894	0.0	0.9960567067566867	-0.6770282786027947	0.0	0.9790868752765514	-0.7949610443937114	0.0	1.0153141765043643	-0.8186746704602232	0.0	1.0046500360971735	-0.8215498951637353	0.0	0.9691959936856782	-0.8125897418188185	0.0	0.9934999951731875	-0.5682481264545673	0.0	0.9973830283218524	-0.676073704024552	0.0	0.9804176955477726	-0.7899983443537896	0.0	1.0154457343641743	-0.8108730839219649	0.0	1.0090964470397348	-0.8112297587892637	0.0	0.968871772395134	-0.8067660406157138	0.0	0.9918715041504531	-0.4061200281747485	0.0	0.9944665134346741	-0.33182395979938134	0.0	1.0203008225886638	-0.36903226447355686	0.0	0.9883632566806053	-0.4305024888556705	0.0	1.0001150314303435	-0.5123713162485516	0.0	1.0468555578345546	-0.5727605789469621	0.0	0.987410835266475	-0.42901305617775126	0.0	1.0019629024793977	-0.5056976901468219	0.0	1.036206520710033	-0.5642216739157025	0.0
5	0.16771488469601675	0.9926282717464087	-0.5690191979777868	0.0	0.9954138129514641	-0.5672477007591658	0.0	0.995826361546522	-0.6767297446622316	0.0	0.9792178014345284	-0.795288081375346	0.0	1.0163085593532675	-0.8179161619304988	0.0	1.0062604479604709	-0.8211114815446015	0.0	0.9688042504702478	-0.8125041000360841	0.0	0.9922470396855776	-0.5669424737835923	0.0	0.9967234931918925	-0.675502262914589	0.0	0.9801654900541197	-0.7897109467221229	0.0	1.0157359992500863	-0.8105643535170908	0.0	1.0092446683395473	-0.8109058665902368	0.0	0.9684047754513809	-0.8064046313011094	0.0	0.9927171895479675	-0.4063813219953984	0.0	0.9970065575445403	-0.33164068074728004	0.0	1.0217644917484816	-0.3697993684321317	0.0	0.9891167596562315	-0.4301326441057516	0.0	1.0056887648223238	-0.5107002138375264	0.0	1.0562177280008667	-0.5686663084370147	0.0	0.9869600954571937	-0.42906757925362876	0.0	1.0069463923230497	-0.504705336248029	0.0	1.0439570163906169	-0.5605356064046662	0.0
6	0.20125786163522008	0.9902243633673545	-0.5674340448004087	0.0	0.993103749127232	-0.5656929349844403	0.0	0.9949973137531102	-0.6760468669336084	0.0	0.9792307214631135	-0.7949167727801016	0.0	1.0171306557462436	-0.8161600096741825	0.0	1.0076131785064053	-0.8197495798118882	0.0	0.968384793856959	-0.8117162439075517	0.0	0.9908996167523219	-0.565283514292158	0.0	0.9957711016231262	-0.6745592729364404	0.0	0.9800068150890484	-0.7887339962070015	0.0	1.0162318053805557	-0.8092805090117002	0.0	1.0098244244264682	-0.8094660241957544	0.0	0.9681355630848008	-0.8053402171290895	0.0	0.9937211202151074	-0.4060716211002389	0.0	0.9998877522646511	-0.33119694516350395	0.0	1.0234486263745306	-0.3704830422333612	0.0	0.9898498733359307	-0.4293707790723797	0.0	1.0122161117744226	-0.5079807156371496	0.0	1.0668577802112178	-0.5627254314594051	0.0	0.9867026081856193	-0.42859888590006245	0.0	1.0124051605616988	-0.5027205076184527	0.0	1.0535703896584951	-0.5550893214213046	0.0
7	0.23480083857442344	0.9872891776326292	-0.5658143581903351	0.0	0.9899511427114911	-0.5640637707971251	0.0	0.9934517304257248	-0.6751760138275676	0.0	0.9788986505456031	-0.7939121945418064	0.0	1.0175687071967028	-0.8135727534079916	0.0	1.008426201586394	-0.817589921986365	0.0	0.9678394072182283	-0.8103337654673248	0.0	0.9892827970510043	-0.5635799796623114	0.0	0.9943947973169522	-0.6735034123522929	0.0	0.9798195447927645	-0.7871645820582978	0.0	1.0168511773630449	-0.8069087298663361	0.0	1.0107064923748448	-0.8068039463848536	0.0	0.9679513969751492	-0.8036370146921793	0.0	0.9948980157884608	-0.4053868836391449	0.0	1.0030507119205954	-0.33082810709586563	0.0	1.0253670177564074	-0.3711890028649797	0.0	0.9906373353451671	-0.4283884978354809	0.0	1.0193781276049851	-0.5044721542593134	0.0	1.0780366457635018	-0.5550956404260646	0.0	0.9867702254902694	-0.4277074383815631	0.0	1.0176564274737971	-0.4999235156623226	0.0	1.0642145615143792	-0.5480483438559389	0.0
8	0.2683438155136268	0.9839155156396611	-0.5643114971747704	0.0	0.986087574332932	-0.5624775348184465	0.0	0.9913166461669611	-0.6742287297646604	0.0	0.9781655356720278	-0.7923717713040838	0.0	1.0174195922620926	-0.8104019861389702	0.0	1.0085012923509418	-0.8148224536252748	0.0	0.9671695500682164	-0.8085104941519943	0.0	0.9872021106403442	-0.5619337982851789	0.0	0.9925744058249603	-0.672479323302635	0.0	0.9794512888205276	-0.7850936051245248	0.0	1.0173151594512015	-0.8036204158409663	0.0	1.0115316005342045	-0.8031459619436743	0.0	0.9677414580759205	-0.8013865367052649	0.0	0.9962298073615232	-0.4045951784206763	0.0	1.0064763316724863	-0.3306956598185825	0.0	1.0275315147354493	-0.3719708663260592	0.0	0.9915797012645197	-0.42732694984397074	0.0	1.0268541226368613	-0.5004479491485844	0.0	1.0891003215699737	-0.5462207626504265	0.0	0.9870822279999912	-0.42651510392985864	0.0	1.0221100062944282	-0.4964878653911104	0.0	1.074867480478387	-0.5397952095527843	0.0
